<svg role="img" viewBox="0 0 240 240" xmlns="http://www.w3.org/2000/svg" id="Scopus--Streamline-Simple-Icons" height="240" width="240">
  <desc>
    Scopus Streamline Icon: https://streamlinehq.com
  </desc>
  <title>Scopus</title>
  <path d="m240 190.59 -1.4000000000000001 -17.77c-14.26 7.720000000000001 -29.45 10.760000000000002 -44.65 10.760000000000002 -33.19 0 -59.6 -27.82 -59.6 -64.75 0 -39.03 25.950000000000003 -63.099999999999994 56.33 -63.099999999999994 19.17 0 33.9 3.03 47.92 10.75L240 48.949999999999996c-12.86 -6.08 -23.37 -8.89 -46.980000000000004 -8.89 -45.339999999999996 0 -79.7 35.3 -79.7 80.16999999999999 0 51.2 40.9 79.24000000000001 79 79.24000000000001 19.16 0 35.059999999999995 -2.5700000000000003 47.68 -8.88zm-149.54000000000002 -34.6c0 -22.200000000000003 -19.64 -32.25 -38.57 -43.470000000000006C37.160000000000004 103.64000000000001 21.5 97.56 21.5 81.19999999999999c0 -12.15 8.89 -25.48 26.419999999999998 -25.48 15.19 0 25.7 2.3400000000000003 39.03 10.29l1.1700000000000002 -18.47c-12.39 -5.140000000000001 -21.269999999999996 -7.48 -41.37 -7.48C18 40.06 0.47 58.760000000000005 0.47 82.6c0 23.84 21.03 34.129999999999995 40.199999999999996 45.81 14.26 8.65 29.220000000000002 14.5 29.220000000000002 29.92 0 14.96 -13.33 25.71 -29.220000000000002 25.71 -15.66 0 -25.939999999999998 -3.5 -37.86 -10.75L0 191.76c12.15 5.6000000000000005 24.540000000000003 8.18 41.6 8.18 23.849999999999998 0 48.849999999999994 -14.73 48.849999999999994 -43.949999999999996z" fill="#000000" stroke-width="10"></path>
</svg>